<svg id="Layer_1" data-name="Layer 1" xmlns="http://www.w3.org/2000/svg" viewBox="0 0 2436 1125"><defs><style>.cls-1{fill:#666;}</style></defs><title>Artboard 2</title><polygon class="cls-1" points="1210.5 725.6 1590.98 725.6 1590.98 671.31 1242.17 671.31 1210.5 725.37 1210.5 725.6"/><polygon points="1590.98 589.88 1590.98 535.6 1321.67 535.6 1289.87 589.88 1590.98 589.88"/><polygon class="cls-1" points="1590.98 399.4 1401.46 399.4 1369.66 453.69 1590.98 453.69 1590.98 399.4"/><path d="M1003.66,453.2H1294V399.4H1008.5Q913,399.4,913,480.83v27.63q.94,78.81,91.69,80.4c1.26,0,3.79.06,3.79.06V534.63h-4.84q-35.88,0-35.87-40.71T1003.66,453.2Z"/><path d="M1135.71,535.66c-1.41,0-2.81-.06-4.24-.06v54.29h4.24q35.49.21,35.5,40.22,0,41.21-35.86,41.2H845v53.8h286.45q94.52,0,94.51-81.91V616.06Q1226,537.44,1135.71,535.66Z"/><path class="cls-1" d="M1018.81,555.3l31.62,33.13h-10.86l-25.86-27.06Zm31.62-20.59L1029,558.18l-5.35-5.59,15.73-17.88Z"/><path class="cls-1" d="M1101,534.91l15.75,17.91-5.35,5.6-21.51-23.51Zm25.67,26.7-25.91,27.1h-10.87l31.66-33.17Z"/><path d="M1052,588.48l28.74-53.57h7.58l-28.74,53.57Z"/></svg>